<svg width="41" height="46" viewBox="0 0 41 46" fill="none" xmlns="http://www.w3.org/2000/svg">
<g clip-path="url(#clip0_102_31)">
<path d="M41 32.5179V13.4821C41 12.0753 40.2534 10.7763 39.0443 10.0812L22.4113 0.511103C21.2264 -0.170368 19.7743 -0.170368 18.5894 0.511103L1.9557 10.0812C0.746617 10.7763 0 12.0753 0 13.4821V32.5179C0 33.9247 0.746617 35.2237 1.9557 35.9188L18.5894 45.4889C19.7743 46.1704 21.2264 46.1704 22.4113 45.4889L39.045 35.9196C40.2534 35.2237 41 33.9247 41 32.5179Z" fill="white"/>
<path d="M19.7125 44.3668C19.7125 44.3668 4.43493 35.4875 2.89623 34.6041C2.30235 34.249 1.47049 33.7544 1.47049 32.674L1.42218 25.5128L19.8454 37.3192L19.7125 44.3668Z" fill="#734583"/>
<path d="M19.9676 27.8152L19.8454 34.4315C19.8454 34.4315 4.04068 24.5818 2.94598 23.8349C2.57231 23.5798 2.22564 23.2929 1.88608 22.9953C1.62252 22.7639 1.5117 22.4749 1.49821 22.1133C1.42859 20.2932 1.51455 18.4738 1.51241 16.6536C1.51241 16.5228 1.48897 16.3575 1.59482 16.282C1.7234 16.19 1.82641 16.3474 1.92728 16.4121C3.35445 17.3265 4.79085 18.2279 6.20026 19.166C9.09935 21.0961 12.0148 23.0004 14.9565 24.8607C16.4867 25.8283 17.9572 26.8965 19.5669 27.7333C19.6941 27.8016 19.9676 27.8152 19.9676 27.8152Z" fill="#734583"/>
<path d="M18.0169 13.3915C18.0247 13.5841 17.933 13.6704 17.7981 13.5856C17.3498 13.3167 12.451 9.53699 11.558 8.95975C11.2384 8.69377 11.4749 8.35016 11.6497 8.25384C12.8453 7.59393 16.4419 5.09377 17.3242 4.63658C17.6425 4.47124 17.6944 4.74872 17.6979 4.94353C17.6979 4.95072 17.9728 12.2571 18.0169 13.3915Z" fill="#3D1B4D"/>
<path d="M19.8447 34.4315L39.2404 22.4411L39.1786 25.4466L19.8447 37.3184V34.4315Z" fill="#3D1B4D"/>
<path d="M19.9676 27.8152C19.9676 27.8152 19.9718 26.09 19.9732 25.3488C19.974 25.1289 19.8908 25.0016 19.7054 24.8924C16.7999 23.1758 14.0067 21.4268 11.2042 19.5434C9.42542 18.348 7.54857 17.3107 5.75627 16.1389C4.55642 15.3547 3.331 14.638 2.14608 13.8314C1.57777 13.3577 1.65307 12.0638 2.41105 11.5404C3.15128 11.071 5.70441 9.4989 6.55261 8.97917C6.69469 8.89219 6.81616 8.78796 6.99447 8.93244C7.75672 9.39251 19.9676 17.8088 19.9676 17.8088C19.9676 17.8088 19.9676 4.45113 19.9676 3.98891C19.9676 2.7798 20.6076 1.56997 22.2159 2.45775C23.0918 2.99689 38.4334 11.5426 38.768 11.7467C39.1416 11.9746 39.3455 12.255 39.3412 12.7143V15.9973L19.9676 27.8152Z" fill="#734583"/>
</g>
<defs>
<clipPath id="clip0_102_31">
<rect width="41" height="46" fill="white"/>
</clipPath>
</defs>
</svg>
